<mxfile host="Electron" agent="Mozilla/5.0 (Windows NT 10.0; Win64; x64) AppleWebKit/537.36 (KHTML, like Gecko) draw.io/24.7.5 Chrome/126.0.6478.183 Electron/31.3.0 Safari/537.36" version="24.7.5">
  <diagram id="C5RBs43oDa-KdzZeNtuy" name="Page-1">
    <mxGraphModel dx="1290" dy="621" grid="1" gridSize="10" guides="1" tooltips="1" connect="1" arrows="1" fold="1" page="1" pageScale="1" pageWidth="827" pageHeight="1169" math="0" shadow="0">
      <root>
        <mxCell id="WIyWlLk6GJQsqaUBKTNV-0" />
        <mxCell id="WIyWlLk6GJQsqaUBKTNV-1" parent="WIyWlLk6GJQsqaUBKTNV-0" />
        <mxCell id="zkfFHV4jXpPFQw0GAbJ--0" value="User" style="swimlane;fontStyle=2;align=center;verticalAlign=top;childLayout=stackLayout;horizontal=1;startSize=26;horizontalStack=0;resizeParent=1;resizeLast=0;collapsible=1;marginBottom=0;rounded=0;shadow=0;strokeWidth=1;" parent="WIyWlLk6GJQsqaUBKTNV-1" vertex="1">
          <mxGeometry x="209" y="50" width="160" height="190" as="geometry">
            <mxRectangle x="230" y="140" width="160" height="26" as="alternateBounds" />
          </mxGeometry>
        </mxCell>
        <mxCell id="zkfFHV4jXpPFQw0GAbJ--1" value="username: String" style="text;align=left;verticalAlign=top;spacingLeft=4;spacingRight=4;overflow=hidden;rotatable=0;points=[[0,0.5],[1,0.5]];portConstraint=eastwest;" parent="zkfFHV4jXpPFQw0GAbJ--0" vertex="1">
          <mxGeometry y="26" width="160" height="26" as="geometry" />
        </mxCell>
        <mxCell id="zkfFHV4jXpPFQw0GAbJ--2" value="first_name: String" style="text;align=left;verticalAlign=top;spacingLeft=4;spacingRight=4;overflow=hidden;rotatable=0;points=[[0,0.5],[1,0.5]];portConstraint=eastwest;rounded=0;shadow=0;html=0;" parent="zkfFHV4jXpPFQw0GAbJ--0" vertex="1">
          <mxGeometry y="52" width="160" height="26" as="geometry" />
        </mxCell>
        <mxCell id="zkfFHV4jXpPFQw0GAbJ--3" value="last_name: String" style="text;align=left;verticalAlign=top;spacingLeft=4;spacingRight=4;overflow=hidden;rotatable=0;points=[[0,0.5],[1,0.5]];portConstraint=eastwest;rounded=0;shadow=0;html=0;" parent="zkfFHV4jXpPFQw0GAbJ--0" vertex="1">
          <mxGeometry y="78" width="160" height="26" as="geometry" />
        </mxCell>
        <mxCell id="hp9yu2gvQ4f1Yy3YarGS-0" value="email: String" style="text;align=left;verticalAlign=top;spacingLeft=4;spacingRight=4;overflow=hidden;rotatable=0;points=[[0,0.5],[1,0.5]];portConstraint=eastwest;rounded=0;shadow=0;html=0;" parent="zkfFHV4jXpPFQw0GAbJ--0" vertex="1">
          <mxGeometry y="104" width="160" height="26" as="geometry" />
        </mxCell>
        <mxCell id="hp9yu2gvQ4f1Yy3YarGS-1" value="password: String" style="text;align=left;verticalAlign=top;spacingLeft=4;spacingRight=4;overflow=hidden;rotatable=0;points=[[0,0.5],[1,0.5]];portConstraint=eastwest;rounded=0;shadow=0;html=0;" parent="zkfFHV4jXpPFQw0GAbJ--0" vertex="1">
          <mxGeometry y="130" width="160" height="26" as="geometry" />
        </mxCell>
        <mxCell id="hp9yu2gvQ4f1Yy3YarGS-2" value="is_admin: Boolean" style="text;align=left;verticalAlign=top;spacingLeft=4;spacingRight=4;overflow=hidden;rotatable=0;points=[[0,0.5],[1,0.5]];portConstraint=eastwest;rounded=0;shadow=0;html=0;" parent="zkfFHV4jXpPFQw0GAbJ--0" vertex="1">
          <mxGeometry y="156" width="160" height="26" as="geometry" />
        </mxCell>
        <mxCell id="hp9yu2gvQ4f1Yy3YarGS-13" style="edgeStyle=orthogonalEdgeStyle;rounded=0;orthogonalLoop=1;jettySize=auto;html=1;entryX=0.5;entryY=1;entryDx=0;entryDy=0;" parent="WIyWlLk6GJQsqaUBKTNV-1" source="hp9yu2gvQ4f1Yy3YarGS-10" target="zkfFHV4jXpPFQw0GAbJ--0" edge="1">
          <mxGeometry relative="1" as="geometry">
            <Array as="points">
              <mxPoint x="64" y="270" />
              <mxPoint x="289" y="270" />
            </Array>
          </mxGeometry>
        </mxCell>
        <mxCell id="hp9yu2gvQ4f1Yy3YarGS-10" value="Student" style="rounded=0;whiteSpace=wrap;html=1;fontStyle=2" parent="WIyWlLk6GJQsqaUBKTNV-1" vertex="1">
          <mxGeometry x="9" y="300" width="110" height="50" as="geometry" />
        </mxCell>
        <mxCell id="hp9yu2gvQ4f1Yy3YarGS-14" style="edgeStyle=orthogonalEdgeStyle;rounded=0;orthogonalLoop=1;jettySize=auto;html=1;entryX=0.5;entryY=1;entryDx=0;entryDy=0;exitX=0.5;exitY=0;exitDx=0;exitDy=0;" parent="WIyWlLk6GJQsqaUBKTNV-1" source="hp9yu2gvQ4f1Yy3YarGS-11" target="zkfFHV4jXpPFQw0GAbJ--0" edge="1">
          <mxGeometry relative="1" as="geometry">
            <Array as="points">
              <mxPoint x="509" y="270" />
              <mxPoint x="289" y="270" />
            </Array>
          </mxGeometry>
        </mxCell>
        <mxCell id="hp9yu2gvQ4f1Yy3YarGS-11" value="Professor" style="rounded=0;whiteSpace=wrap;html=1;fontStyle=2" parent="WIyWlLk6GJQsqaUBKTNV-1" vertex="1">
          <mxGeometry x="454" y="300" width="110" height="50" as="geometry" />
        </mxCell>
        <mxCell id="hp9yu2gvQ4f1Yy3YarGS-15" value="Attribute" style="swimlane;fontStyle=2;align=center;verticalAlign=top;childLayout=stackLayout;horizontal=1;startSize=26;horizontalStack=0;resizeParent=1;resizeLast=0;collapsible=1;marginBottom=0;rounded=0;shadow=0;strokeWidth=1;" parent="WIyWlLk6GJQsqaUBKTNV-1" vertex="1">
          <mxGeometry x="209" y="430" width="160" height="60" as="geometry">
            <mxRectangle x="230" y="140" width="160" height="26" as="alternateBounds" />
          </mxGeometry>
        </mxCell>
        <mxCell id="hp9yu2gvQ4f1Yy3YarGS-16" value="answer: String" style="text;align=left;verticalAlign=top;spacingLeft=4;spacingRight=4;overflow=hidden;rotatable=0;points=[[0,0.5],[1,0.5]];portConstraint=eastwest;" parent="hp9yu2gvQ4f1Yy3YarGS-15" vertex="1">
          <mxGeometry y="26" width="160" height="26" as="geometry" />
        </mxCell>
        <mxCell id="hp9yu2gvQ4f1Yy3YarGS-22" value="Question" style="swimlane;fontStyle=2;align=center;verticalAlign=top;childLayout=stackLayout;horizontal=1;startSize=26;horizontalStack=0;resizeParent=1;resizeLast=0;collapsible=1;marginBottom=0;rounded=0;shadow=0;strokeWidth=1;" parent="WIyWlLk6GJQsqaUBKTNV-1" vertex="1">
          <mxGeometry x="429" y="430" width="160" height="110" as="geometry">
            <mxRectangle x="230" y="140" width="160" height="26" as="alternateBounds" />
          </mxGeometry>
        </mxCell>
        <mxCell id="hp9yu2gvQ4f1Yy3YarGS-23" value="question: String" style="text;align=left;verticalAlign=top;spacingLeft=4;spacingRight=4;overflow=hidden;rotatable=0;points=[[0,0.5],[1,0.5]];portConstraint=eastwest;" parent="hp9yu2gvQ4f1Yy3YarGS-22" vertex="1">
          <mxGeometry y="26" width="160" height="26" as="geometry" />
        </mxCell>
        <mxCell id="hp9yu2gvQ4f1Yy3YarGS-26" value="type: String" style="text;align=left;verticalAlign=top;spacingLeft=4;spacingRight=4;overflow=hidden;rotatable=0;points=[[0,0.5],[1,0.5]];portConstraint=eastwest;" parent="hp9yu2gvQ4f1Yy3YarGS-22" vertex="1">
          <mxGeometry y="52" width="160" height="26" as="geometry" />
        </mxCell>
        <mxCell id="hp9yu2gvQ4f1Yy3YarGS-27" value="difficulty: int" style="text;align=left;verticalAlign=top;spacingLeft=4;spacingRight=4;overflow=hidden;rotatable=0;points=[[0,0.5],[1,0.5]];portConstraint=eastwest;" parent="hp9yu2gvQ4f1Yy3YarGS-22" vertex="1">
          <mxGeometry y="78" width="160" height="26" as="geometry" />
        </mxCell>
        <mxCell id="hp9yu2gvQ4f1Yy3YarGS-24" value="Test" style="swimlane;fontStyle=2;align=center;verticalAlign=top;childLayout=stackLayout;horizontal=1;startSize=26;horizontalStack=0;resizeParent=1;resizeLast=0;collapsible=1;marginBottom=0;rounded=0;shadow=0;strokeWidth=1;" parent="WIyWlLk6GJQsqaUBKTNV-1" vertex="1">
          <mxGeometry x="646" y="430" width="160" height="160" as="geometry">
            <mxRectangle x="230" y="140" width="160" height="26" as="alternateBounds" />
          </mxGeometry>
        </mxCell>
        <mxCell id="hp9yu2gvQ4f1Yy3YarGS-25" value="level: int" style="text;align=left;verticalAlign=top;spacingLeft=4;spacingRight=4;overflow=hidden;rotatable=0;points=[[0,0.5],[1,0.5]];portConstraint=eastwest;" parent="hp9yu2gvQ4f1Yy3YarGS-24" vertex="1">
          <mxGeometry y="26" width="160" height="26" as="geometry" />
        </mxCell>
        <mxCell id="hp9yu2gvQ4f1Yy3YarGS-28" value="age: int" style="text;align=left;verticalAlign=top;spacingLeft=4;spacingRight=4;overflow=hidden;rotatable=0;points=[[0,0.5],[1,0.5]];portConstraint=eastwest;" parent="hp9yu2gvQ4f1Yy3YarGS-24" vertex="1">
          <mxGeometry y="52" width="160" height="26" as="geometry" />
        </mxCell>
        <mxCell id="hp9yu2gvQ4f1Yy3YarGS-29" value="type: String" style="text;align=left;verticalAlign=top;spacingLeft=4;spacingRight=4;overflow=hidden;rotatable=0;points=[[0,0.5],[1,0.5]];portConstraint=eastwest;" parent="hp9yu2gvQ4f1Yy3YarGS-24" vertex="1">
          <mxGeometry y="78" width="160" height="26" as="geometry" />
        </mxCell>
        <mxCell id="hp9yu2gvQ4f1Yy3YarGS-30" value="questions_no: int" style="text;align=left;verticalAlign=top;spacingLeft=4;spacingRight=4;overflow=hidden;rotatable=0;points=[[0,0.5],[1,0.5]];portConstraint=eastwest;" parent="hp9yu2gvQ4f1Yy3YarGS-24" vertex="1">
          <mxGeometry y="104" width="160" height="26" as="geometry" />
        </mxCell>
        <mxCell id="hp9yu2gvQ4f1Yy3YarGS-31" value="questions_dif: int" style="text;align=left;verticalAlign=top;spacingLeft=4;spacingRight=4;overflow=hidden;rotatable=0;points=[[0,0.5],[1,0.5]];portConstraint=eastwest;" parent="hp9yu2gvQ4f1Yy3YarGS-24" vertex="1">
          <mxGeometry y="130" width="160" height="26" as="geometry" />
        </mxCell>
        <mxCell id="hp9yu2gvQ4f1Yy3YarGS-32" value="" style="endArrow=none;html=1;rounded=0;entryX=0.5;entryY=1;entryDx=0;entryDy=0;exitX=0.5;exitY=0;exitDx=0;exitDy=0;" parent="WIyWlLk6GJQsqaUBKTNV-1" source="hp9yu2gvQ4f1Yy3YarGS-15" target="hp9yu2gvQ4f1Yy3YarGS-11" edge="1">
          <mxGeometry width="50" height="50" relative="1" as="geometry">
            <mxPoint x="394" y="480" as="sourcePoint" />
            <mxPoint x="444" y="430" as="targetPoint" />
            <Array as="points">
              <mxPoint x="289" y="400" />
              <mxPoint x="509" y="400" />
            </Array>
          </mxGeometry>
        </mxCell>
        <mxCell id="hp9yu2gvQ4f1Yy3YarGS-44" value="*" style="edgeLabel;html=1;align=center;verticalAlign=middle;resizable=0;points=[];" parent="hp9yu2gvQ4f1Yy3YarGS-32" vertex="1" connectable="0">
          <mxGeometry x="-0.8726" relative="1" as="geometry">
            <mxPoint x="-10" as="offset" />
          </mxGeometry>
        </mxCell>
        <mxCell id="hp9yu2gvQ4f1Yy3YarGS-35" value="" style="endArrow=none;html=1;rounded=0;entryX=0.5;entryY=1;entryDx=0;entryDy=0;exitX=0.5;exitY=0;exitDx=0;exitDy=0;" parent="WIyWlLk6GJQsqaUBKTNV-1" source="hp9yu2gvQ4f1Yy3YarGS-22" target="hp9yu2gvQ4f1Yy3YarGS-11" edge="1">
          <mxGeometry width="50" height="50" relative="1" as="geometry">
            <mxPoint x="354" y="440" as="sourcePoint" />
            <mxPoint x="489" y="360" as="targetPoint" />
            <Array as="points">
              <mxPoint x="509" y="400" />
            </Array>
          </mxGeometry>
        </mxCell>
        <mxCell id="hp9yu2gvQ4f1Yy3YarGS-36" value="1&lt;div&gt;&lt;br&gt;&lt;/div&gt;&lt;div&gt;&lt;br&gt;&lt;/div&gt;&lt;div&gt;&lt;br&gt;&lt;/div&gt;&lt;div&gt;*&lt;/div&gt;" style="edgeLabel;html=1;align=center;verticalAlign=middle;resizable=0;points=[];" parent="hp9yu2gvQ4f1Yy3YarGS-35" vertex="1" connectable="0">
          <mxGeometry x="-0.0132" y="-2" relative="1" as="geometry">
            <mxPoint x="8" y="1" as="offset" />
          </mxGeometry>
        </mxCell>
        <mxCell id="hp9yu2gvQ4f1Yy3YarGS-37" value="" style="endArrow=none;html=1;rounded=0;entryX=0.5;entryY=1;entryDx=0;entryDy=0;exitX=0.544;exitY=0.006;exitDx=0;exitDy=0;exitPerimeter=0;" parent="WIyWlLk6GJQsqaUBKTNV-1" source="hp9yu2gvQ4f1Yy3YarGS-24" target="hp9yu2gvQ4f1Yy3YarGS-11" edge="1">
          <mxGeometry width="50" height="50" relative="1" as="geometry">
            <mxPoint x="569" y="440" as="sourcePoint" />
            <mxPoint x="489" y="360" as="targetPoint" />
            <Array as="points">
              <mxPoint x="733" y="400" />
              <mxPoint x="509" y="400" />
            </Array>
          </mxGeometry>
        </mxCell>
        <mxCell id="hp9yu2gvQ4f1Yy3YarGS-45" value="*" style="edgeLabel;html=1;align=center;verticalAlign=middle;resizable=0;points=[];" parent="hp9yu2gvQ4f1Yy3YarGS-37" vertex="1" connectable="0">
          <mxGeometry x="-0.8981" y="-1" relative="1" as="geometry">
            <mxPoint x="5" as="offset" />
          </mxGeometry>
        </mxCell>
        <mxCell id="hp9yu2gvQ4f1Yy3YarGS-48" value="" style="endArrow=none;html=1;rounded=0;entryX=0;entryY=0.5;entryDx=0;entryDy=0;exitX=1;exitY=0.5;exitDx=0;exitDy=0;" parent="WIyWlLk6GJQsqaUBKTNV-1" source="hp9yu2gvQ4f1Yy3YarGS-26" target="hp9yu2gvQ4f1Yy3YarGS-28" edge="1">
          <mxGeometry width="50" height="50" relative="1" as="geometry">
            <mxPoint x="99" y="410" as="sourcePoint" />
            <mxPoint x="149" y="360" as="targetPoint" />
          </mxGeometry>
        </mxCell>
        <mxCell id="hp9yu2gvQ4f1Yy3YarGS-49" value="*&amp;nbsp; &amp;nbsp; &amp;nbsp; &amp;nbsp; &amp;nbsp; &amp;nbsp; *" style="edgeLabel;html=1;align=center;verticalAlign=middle;resizable=0;points=[];" parent="hp9yu2gvQ4f1Yy3YarGS-48" vertex="1" connectable="0">
          <mxGeometry x="-0.0877" y="-5" relative="1" as="geometry">
            <mxPoint y="-15" as="offset" />
          </mxGeometry>
        </mxCell>
        <mxCell id="hp9yu2gvQ4f1Yy3YarGS-50" value="" style="endArrow=none;html=1;rounded=0;entryX=0;entryY=0.5;entryDx=0;entryDy=0;exitX=1;exitY=0.5;exitDx=0;exitDy=0;" parent="WIyWlLk6GJQsqaUBKTNV-1" source="hp9yu2gvQ4f1Yy3YarGS-16" target="hp9yu2gvQ4f1Yy3YarGS-23" edge="1">
          <mxGeometry width="50" height="50" relative="1" as="geometry">
            <mxPoint x="369" y="470" as="sourcePoint" />
            <mxPoint x="426" y="470" as="targetPoint" />
          </mxGeometry>
        </mxCell>
        <mxCell id="hp9yu2gvQ4f1Yy3YarGS-51" value="*&amp;nbsp; &amp;nbsp; &amp;nbsp; &amp;nbsp; &amp;nbsp; &amp;nbsp; *" style="edgeLabel;html=1;align=center;verticalAlign=middle;resizable=0;points=[];" parent="hp9yu2gvQ4f1Yy3YarGS-50" vertex="1" connectable="0">
          <mxGeometry x="-0.0877" y="-5" relative="1" as="geometry">
            <mxPoint y="-15" as="offset" />
          </mxGeometry>
        </mxCell>
        <mxCell id="hp9yu2gvQ4f1Yy3YarGS-57" value="Test Score" style="swimlane;fontStyle=2;align=center;verticalAlign=top;childLayout=stackLayout;horizontal=1;startSize=26;horizontalStack=0;resizeParent=1;resizeLast=0;collapsible=1;marginBottom=0;rounded=0;shadow=0;strokeWidth=1;" parent="WIyWlLk6GJQsqaUBKTNV-1" vertex="1">
          <mxGeometry x="269" y="580" width="160" height="60" as="geometry">
            <mxRectangle x="230" y="140" width="160" height="26" as="alternateBounds" />
          </mxGeometry>
        </mxCell>
        <mxCell id="hp9yu2gvQ4f1Yy3YarGS-58" value="result: float" style="text;align=left;verticalAlign=top;spacingLeft=4;spacingRight=4;overflow=hidden;rotatable=0;points=[[0,0.5],[1,0.5]];portConstraint=eastwest;" parent="hp9yu2gvQ4f1Yy3YarGS-57" vertex="1">
          <mxGeometry y="26" width="160" height="26" as="geometry" />
        </mxCell>
        <mxCell id="hp9yu2gvQ4f1Yy3YarGS-59" value="" style="endArrow=none;html=1;rounded=0;entryX=0.5;entryY=1;entryDx=0;entryDy=0;exitX=0;exitY=0.5;exitDx=0;exitDy=0;" parent="WIyWlLk6GJQsqaUBKTNV-1" source="hp9yu2gvQ4f1Yy3YarGS-57" target="hp9yu2gvQ4f1Yy3YarGS-10" edge="1">
          <mxGeometry width="50" height="50" relative="1" as="geometry">
            <mxPoint x="299" y="440" as="sourcePoint" />
            <mxPoint x="519" y="360" as="targetPoint" />
            <Array as="points">
              <mxPoint x="189" y="610" />
              <mxPoint x="64" y="610" />
              <mxPoint x="64" y="390" />
            </Array>
          </mxGeometry>
        </mxCell>
        <mxCell id="hp9yu2gvQ4f1Yy3YarGS-60" value="*" style="edgeLabel;html=1;align=center;verticalAlign=middle;resizable=0;points=[];" parent="hp9yu2gvQ4f1Yy3YarGS-59" vertex="1" connectable="0">
          <mxGeometry x="-0.8726" relative="1" as="geometry">
            <mxPoint x="10" y="-10" as="offset" />
          </mxGeometry>
        </mxCell>
        <mxCell id="hp9yu2gvQ4f1Yy3YarGS-61" value="1" style="edgeLabel;html=1;align=center;verticalAlign=middle;resizable=0;points=[];" parent="hp9yu2gvQ4f1Yy3YarGS-59" vertex="1" connectable="0">
          <mxGeometry x="0.9297" relative="1" as="geometry">
            <mxPoint x="5" as="offset" />
          </mxGeometry>
        </mxCell>
        <mxCell id="hp9yu2gvQ4f1Yy3YarGS-62" value="" style="endArrow=none;html=1;rounded=0;entryX=1.01;entryY=0.077;entryDx=0;entryDy=0;entryPerimeter=0;exitX=0.5;exitY=1;exitDx=0;exitDy=0;" parent="WIyWlLk6GJQsqaUBKTNV-1" source="hp9yu2gvQ4f1Yy3YarGS-24" target="hp9yu2gvQ4f1Yy3YarGS-58" edge="1">
          <mxGeometry width="50" height="50" relative="1" as="geometry">
            <mxPoint x="209" y="450" as="sourcePoint" />
            <mxPoint x="259" y="400" as="targetPoint" />
            <Array as="points">
              <mxPoint x="726" y="610" />
            </Array>
          </mxGeometry>
        </mxCell>
        <mxCell id="hp9yu2gvQ4f1Yy3YarGS-63" value="*" style="edgeLabel;html=1;align=center;verticalAlign=middle;resizable=0;points=[];" parent="hp9yu2gvQ4f1Yy3YarGS-62" vertex="1" connectable="0">
          <mxGeometry x="0.8886" y="1" relative="1" as="geometry">
            <mxPoint y="-9" as="offset" />
          </mxGeometry>
        </mxCell>
        <mxCell id="hp9yu2gvQ4f1Yy3YarGS-64" value="1" style="edgeLabel;html=1;align=center;verticalAlign=middle;resizable=0;points=[];" parent="hp9yu2gvQ4f1Yy3YarGS-62" vertex="1" connectable="0">
          <mxGeometry x="-0.9493" relative="1" as="geometry">
            <mxPoint x="-7" as="offset" />
          </mxGeometry>
        </mxCell>
        <mxCell id="hp9yu2gvQ4f1Yy3YarGS-71" value="ClassGroup" style="swimlane;fontStyle=2;align=center;verticalAlign=top;childLayout=stackLayout;horizontal=1;startSize=26;horizontalStack=0;resizeParent=1;resizeLast=0;collapsible=1;marginBottom=0;rounded=0;shadow=0;strokeWidth=1;" parent="WIyWlLk6GJQsqaUBKTNV-1" vertex="1">
          <mxGeometry x="659" y="200" width="160" height="60" as="geometry">
            <mxRectangle x="230" y="140" width="160" height="26" as="alternateBounds" />
          </mxGeometry>
        </mxCell>
        <mxCell id="hp9yu2gvQ4f1Yy3YarGS-72" value="class_name: String" style="text;align=left;verticalAlign=top;spacingLeft=4;spacingRight=4;overflow=hidden;rotatable=0;points=[[0,0.5],[1,0.5]];portConstraint=eastwest;" parent="hp9yu2gvQ4f1Yy3YarGS-71" vertex="1">
          <mxGeometry y="26" width="160" height="26" as="geometry" />
        </mxCell>
        <mxCell id="hp9yu2gvQ4f1Yy3YarGS-73" value="" style="endArrow=none;html=1;rounded=0;entryX=1;entryY=0.5;entryDx=0;entryDy=0;exitX=0.5;exitY=1;exitDx=0;exitDy=0;" parent="WIyWlLk6GJQsqaUBKTNV-1" source="hp9yu2gvQ4f1Yy3YarGS-71" target="hp9yu2gvQ4f1Yy3YarGS-11" edge="1">
          <mxGeometry width="50" height="50" relative="1" as="geometry">
            <mxPoint x="699" y="325" as="sourcePoint" />
            <mxPoint x="359" y="370" as="targetPoint" />
            <Array as="points">
              <mxPoint x="739" y="290" />
              <mxPoint x="739" y="325" />
              <mxPoint x="649" y="325" />
            </Array>
          </mxGeometry>
        </mxCell>
        <mxCell id="hp9yu2gvQ4f1Yy3YarGS-74" value="*" style="edgeLabel;html=1;align=center;verticalAlign=middle;resizable=0;points=[];" parent="hp9yu2gvQ4f1Yy3YarGS-73" vertex="1" connectable="0">
          <mxGeometry x="0.9283" y="-1" relative="1" as="geometry">
            <mxPoint y="-14" as="offset" />
          </mxGeometry>
        </mxCell>
        <mxCell id="hp9yu2gvQ4f1Yy3YarGS-75" value="*" style="edgeLabel;html=1;align=center;verticalAlign=middle;resizable=0;points=[];" parent="hp9yu2gvQ4f1Yy3YarGS-73" vertex="1" connectable="0">
          <mxGeometry x="-0.9269" relative="1" as="geometry">
            <mxPoint x="-10" as="offset" />
          </mxGeometry>
        </mxCell>
        <mxCell id="AV3rUsQxtOsMWYr95vvP-0" value="" style="endArrow=none;html=1;rounded=0;entryX=0.407;entryY=-0.016;entryDx=0;entryDy=0;exitX=0.5;exitY=0;exitDx=0;exitDy=0;entryPerimeter=0;" edge="1" parent="WIyWlLk6GJQsqaUBKTNV-1" source="hp9yu2gvQ4f1Yy3YarGS-71" target="hp9yu2gvQ4f1Yy3YarGS-10">
          <mxGeometry width="50" height="50" relative="1" as="geometry">
            <mxPoint x="144" y="170" as="sourcePoint" />
            <mxPoint x="-31" y="235" as="targetPoint" />
            <Array as="points">
              <mxPoint x="739" y="20" />
              <mxPoint x="159" y="20" />
              <mxPoint x="54" y="20" />
              <mxPoint x="54" y="235" />
            </Array>
          </mxGeometry>
        </mxCell>
        <mxCell id="AV3rUsQxtOsMWYr95vvP-1" value="*" style="edgeLabel;html=1;align=center;verticalAlign=middle;resizable=0;points=[];" vertex="1" connectable="0" parent="AV3rUsQxtOsMWYr95vvP-0">
          <mxGeometry x="0.9283" y="-1" relative="1" as="geometry">
            <mxPoint x="-14" y="22" as="offset" />
          </mxGeometry>
        </mxCell>
        <mxCell id="AV3rUsQxtOsMWYr95vvP-2" value="*" style="edgeLabel;html=1;align=center;verticalAlign=middle;resizable=0;points=[];" vertex="1" connectable="0" parent="AV3rUsQxtOsMWYr95vvP-0">
          <mxGeometry x="-0.9269" relative="1" as="geometry">
            <mxPoint x="-10" y="22" as="offset" />
          </mxGeometry>
        </mxCell>
        <mxCell id="AV3rUsQxtOsMWYr95vvP-6" value="" style="endArrow=none;html=1;rounded=0;exitX=0.75;exitY=1;exitDx=0;exitDy=0;entryX=0.844;entryY=-0.018;entryDx=0;entryDy=0;entryPerimeter=0;" edge="1" parent="WIyWlLk6GJQsqaUBKTNV-1">
          <mxGeometry width="50" height="50" relative="1" as="geometry">
            <mxPoint x="769" y="260" as="sourcePoint" />
            <mxPoint x="771.04" y="427.1199999999999" as="targetPoint" />
          </mxGeometry>
        </mxCell>
        <mxCell id="AV3rUsQxtOsMWYr95vvP-8" value="1" style="edgeLabel;html=1;align=center;verticalAlign=middle;resizable=0;points=[];" vertex="1" connectable="0" parent="AV3rUsQxtOsMWYr95vvP-6">
          <mxGeometry x="-0.7718" y="2" relative="1" as="geometry">
            <mxPoint x="8" as="offset" />
          </mxGeometry>
        </mxCell>
        <mxCell id="AV3rUsQxtOsMWYr95vvP-9" value="*" style="edgeLabel;html=1;align=center;verticalAlign=middle;resizable=0;points=[];" vertex="1" connectable="0" parent="AV3rUsQxtOsMWYr95vvP-6">
          <mxGeometry x="0.7931" y="3" relative="1" as="geometry">
            <mxPoint x="5" as="offset" />
          </mxGeometry>
        </mxCell>
      </root>
    </mxGraphModel>
  </diagram>
</mxfile>
